# xmcd
#
# Track frame offsets:
#	150
#	20550
#	33500
#	50975
#	77200
#	99750
#	117675
#	135675
#	147275
#	167300
#	192000
#	201775
#	215275
#	235475
#	256425
#
# Disc length: 3674 seconds
# Revision: 3
# Processed by: cddbd v1.5.2PL0 Copyright (c) Steve Scherf et al.
# Submitted via: dBpowerAMP V12.0
#
DISCID=d70e580f
DTITLE=Various Artist - Con alma de blues
DYEAR=1995
DGENRE=Blues
TTITLE0=The Commitments - Try a little tenderness
TTITLE1=Fleetwood Mac - Black magic woman
TTITLE2=Vaya con Dios - What's a woman
TTITLE3=Steppenwolf - The pusher
TTITLE4=Santana - Europe
TTITLE5=Janis Joplin - Cry baby
TTITLE6=Robbie Robertson - Somewhere down the crazy river
TTITLE7=Etta James - I'd rather go blind
TTITLE8=Buddy Guy - Damn right I've got the blues
TTITLE9=Robben Ford and the Blue Line - I'm a real man
TTITLE10=Chuck Berry - Worried life blues
TTITLE11=Koko Taylor - Wang Dang Doodle
TTITLE12=The Animals - The house of the rising sun
TTITLE13=John Mayall - Room to move
TTITLE14=Willy DeVille - Hey Joe
EXTD=
EXTT0=
EXTT1=
EXTT2=
EXTT3=
EXTT4=
EXTT5=
EXTT6=
EXTT7=
EXTT8=
EXTT9=
EXTT10=
EXTT11=
EXTT12=
EXTT13=
EXTT14=
PLAYORDER=
